<mxfile host="app.diagrams.net" modified="2023-06-02T16:26:34.651Z" agent="Mozilla/5.0 (Windows NT 10.0; Win64; x64) AppleWebKit/537.36 (KHTML, like Gecko) Chrome/113.0.0.0 Safari/537.36" etag="LbLF27xuCoScUUwEnzTh" version="21.3.3" type="device">
  <diagram id="C5RBs43oDa-KdzZeNtuy" name="Page-1">
    <mxGraphModel dx="1050" dy="581" grid="1" gridSize="10" guides="1" tooltips="1" connect="1" arrows="1" fold="1" page="1" pageScale="1" pageWidth="827" pageHeight="1169" math="0" shadow="0">
      <root>
        <mxCell id="WIyWlLk6GJQsqaUBKTNV-0" />
        <mxCell id="WIyWlLk6GJQsqaUBKTNV-1" parent="WIyWlLk6GJQsqaUBKTNV-0" />
        <mxCell id="GQACmn0jV0vaVqxmoJ_N-4" value="Client" style="html=1;whiteSpace=wrap;" parent="WIyWlLk6GJQsqaUBKTNV-1" vertex="1">
          <mxGeometry x="270" y="100" width="110" height="50" as="geometry" />
        </mxCell>
        <mxCell id="GQACmn0jV0vaVqxmoJ_N-21" value="" style="endArrow=open;endFill=1;endSize=12;html=1;rounded=0;" parent="WIyWlLk6GJQsqaUBKTNV-1" source="GQACmn0jV0vaVqxmoJ_N-4" target="r4E6djIWqzmuqeX_bI0s-0" edge="1">
          <mxGeometry width="160" relative="1" as="geometry">
            <mxPoint x="70" y="390" as="sourcePoint" />
            <mxPoint x="290" y="155" as="targetPoint" />
            <Array as="points">
              <mxPoint x="325" y="240" />
              <mxPoint x="210" y="240" />
            </Array>
          </mxGeometry>
        </mxCell>
        <mxCell id="r4E6djIWqzmuqeX_bI0s-0" value="&amp;lt;&amp;lt;interface&amp;gt;&amp;gt;&lt;br&gt;GUI" style="swimlane;fontStyle=1;align=center;verticalAlign=top;childLayout=stackLayout;horizontal=1;startSize=40;horizontalStack=0;resizeParent=1;resizeParentMax=0;resizeLast=0;collapsible=1;marginBottom=0;whiteSpace=wrap;html=1;" parent="WIyWlLk6GJQsqaUBKTNV-1" vertex="1">
          <mxGeometry x="130" y="293" width="160" height="74" as="geometry" />
        </mxCell>
        <mxCell id="r4E6djIWqzmuqeX_bI0s-2" value="" style="line;strokeWidth=1;fillColor=none;align=left;verticalAlign=middle;spacingTop=-1;spacingLeft=3;spacingRight=3;rotatable=0;labelPosition=right;points=[];portConstraint=eastwest;strokeColor=inherit;" parent="r4E6djIWqzmuqeX_bI0s-0" vertex="1">
          <mxGeometry y="40" width="160" height="8" as="geometry" />
        </mxCell>
        <mxCell id="r4E6djIWqzmuqeX_bI0s-3" value="+ onClick(): void" style="text;strokeColor=none;fillColor=none;align=left;verticalAlign=top;spacingLeft=4;spacingRight=4;overflow=hidden;rotatable=0;points=[[0,0.5],[1,0.5]];portConstraint=eastwest;whiteSpace=wrap;html=1;" parent="r4E6djIWqzmuqeX_bI0s-0" vertex="1">
          <mxGeometry y="48" width="160" height="26" as="geometry" />
        </mxCell>
        <mxCell id="r4E6djIWqzmuqeX_bI0s-16" value="&amp;lt;&amp;lt;abstract&amp;gt;&amp;gt;&lt;br&gt;GameCommand" style="swimlane;fontStyle=1;align=center;verticalAlign=top;childLayout=stackLayout;horizontal=1;startSize=40;horizontalStack=0;resizeParent=1;resizeParentMax=0;resizeLast=0;collapsible=1;marginBottom=0;whiteSpace=wrap;html=1;" parent="WIyWlLk6GJQsqaUBKTNV-1" vertex="1">
          <mxGeometry x="370" y="280" width="160" height="100" as="geometry" />
        </mxCell>
        <mxCell id="r4E6djIWqzmuqeX_bI0s-17" value="- receiver: Game" style="text;strokeColor=none;fillColor=none;align=left;verticalAlign=top;spacingLeft=4;spacingRight=4;overflow=hidden;rotatable=0;points=[[0,0.5],[1,0.5]];portConstraint=eastwest;whiteSpace=wrap;html=1;" parent="r4E6djIWqzmuqeX_bI0s-16" vertex="1">
          <mxGeometry y="40" width="160" height="26" as="geometry" />
        </mxCell>
        <mxCell id="r4E6djIWqzmuqeX_bI0s-18" value="" style="line;strokeWidth=1;fillColor=none;align=left;verticalAlign=middle;spacingTop=-1;spacingLeft=3;spacingRight=3;rotatable=0;labelPosition=right;points=[];portConstraint=eastwest;strokeColor=inherit;" parent="r4E6djIWqzmuqeX_bI0s-16" vertex="1">
          <mxGeometry y="66" width="160" height="8" as="geometry" />
        </mxCell>
        <mxCell id="r4E6djIWqzmuqeX_bI0s-19" value="+ execute(): void" style="text;strokeColor=none;fillColor=none;align=left;verticalAlign=top;spacingLeft=4;spacingRight=4;overflow=hidden;rotatable=0;points=[[0,0.5],[1,0.5]];portConstraint=eastwest;whiteSpace=wrap;html=1;" parent="r4E6djIWqzmuqeX_bI0s-16" vertex="1">
          <mxGeometry y="74" width="160" height="26" as="geometry" />
        </mxCell>
        <mxCell id="r4E6djIWqzmuqeX_bI0s-20" value="Continue" style="swimlane;fontStyle=1;align=center;verticalAlign=top;childLayout=stackLayout;horizontal=1;startSize=26;horizontalStack=0;resizeParent=1;resizeParentMax=0;resizeLast=0;collapsible=1;marginBottom=0;whiteSpace=wrap;html=1;" parent="WIyWlLk6GJQsqaUBKTNV-1" vertex="1">
          <mxGeometry x="650" y="100" width="110" height="34" as="geometry" />
        </mxCell>
        <mxCell id="r4E6djIWqzmuqeX_bI0s-22" value="" style="line;strokeWidth=1;fillColor=none;align=left;verticalAlign=middle;spacingTop=-1;spacingLeft=3;spacingRight=3;rotatable=0;labelPosition=right;points=[];portConstraint=eastwest;strokeColor=inherit;" parent="r4E6djIWqzmuqeX_bI0s-20" vertex="1">
          <mxGeometry y="26" width="110" height="8" as="geometry" />
        </mxCell>
        <mxCell id="r4E6djIWqzmuqeX_bI0s-24" value="NewGame" style="swimlane;fontStyle=1;align=center;verticalAlign=top;childLayout=stackLayout;horizontal=1;startSize=26;horizontalStack=0;resizeParent=1;resizeParentMax=0;resizeLast=0;collapsible=1;marginBottom=0;whiteSpace=wrap;html=1;" parent="WIyWlLk6GJQsqaUBKTNV-1" vertex="1">
          <mxGeometry x="650" y="160" width="110" height="34" as="geometry" />
        </mxCell>
        <mxCell id="r4E6djIWqzmuqeX_bI0s-25" value="" style="line;strokeWidth=1;fillColor=none;align=left;verticalAlign=middle;spacingTop=-1;spacingLeft=3;spacingRight=3;rotatable=0;labelPosition=right;points=[];portConstraint=eastwest;strokeColor=inherit;" parent="r4E6djIWqzmuqeX_bI0s-24" vertex="1">
          <mxGeometry y="26" width="110" height="8" as="geometry" />
        </mxCell>
        <mxCell id="r4E6djIWqzmuqeX_bI0s-26" value="Save" style="swimlane;fontStyle=1;align=center;verticalAlign=top;childLayout=stackLayout;horizontal=1;startSize=26;horizontalStack=0;resizeParent=1;resizeParentMax=0;resizeLast=0;collapsible=1;marginBottom=0;whiteSpace=wrap;html=1;" parent="WIyWlLk6GJQsqaUBKTNV-1" vertex="1">
          <mxGeometry x="650" y="220" width="120" height="60" as="geometry" />
        </mxCell>
        <mxCell id="r4E6djIWqzmuqeX_bI0s-28" value="- saveName: string" style="text;strokeColor=none;fillColor=none;align=left;verticalAlign=top;spacingLeft=4;spacingRight=4;overflow=hidden;rotatable=0;points=[[0,0.5],[1,0.5]];portConstraint=eastwest;whiteSpace=wrap;html=1;" parent="r4E6djIWqzmuqeX_bI0s-26" vertex="1">
          <mxGeometry y="26" width="120" height="26" as="geometry" />
        </mxCell>
        <mxCell id="r4E6djIWqzmuqeX_bI0s-27" value="" style="line;strokeWidth=1;fillColor=none;align=left;verticalAlign=middle;spacingTop=-1;spacingLeft=3;spacingRight=3;rotatable=0;labelPosition=right;points=[];portConstraint=eastwest;strokeColor=inherit;" parent="r4E6djIWqzmuqeX_bI0s-26" vertex="1">
          <mxGeometry y="52" width="120" height="8" as="geometry" />
        </mxCell>
        <mxCell id="r4E6djIWqzmuqeX_bI0s-29" value="Load" style="swimlane;fontStyle=1;align=center;verticalAlign=top;childLayout=stackLayout;horizontal=1;startSize=26;horizontalStack=0;resizeParent=1;resizeParentMax=0;resizeLast=0;collapsible=1;marginBottom=0;whiteSpace=wrap;html=1;" parent="WIyWlLk6GJQsqaUBKTNV-1" vertex="1">
          <mxGeometry x="650" y="300" width="120" height="60" as="geometry" />
        </mxCell>
        <mxCell id="r4E6djIWqzmuqeX_bI0s-30" value="- saveName: string" style="text;strokeColor=none;fillColor=none;align=left;verticalAlign=top;spacingLeft=4;spacingRight=4;overflow=hidden;rotatable=0;points=[[0,0.5],[1,0.5]];portConstraint=eastwest;whiteSpace=wrap;html=1;" parent="r4E6djIWqzmuqeX_bI0s-29" vertex="1">
          <mxGeometry y="26" width="120" height="26" as="geometry" />
        </mxCell>
        <mxCell id="r4E6djIWqzmuqeX_bI0s-31" value="" style="line;strokeWidth=1;fillColor=none;align=left;verticalAlign=middle;spacingTop=-1;spacingLeft=3;spacingRight=3;rotatable=0;labelPosition=right;points=[];portConstraint=eastwest;strokeColor=inherit;" parent="r4E6djIWqzmuqeX_bI0s-29" vertex="1">
          <mxGeometry y="52" width="120" height="8" as="geometry" />
        </mxCell>
        <mxCell id="r4E6djIWqzmuqeX_bI0s-32" value="Exit" style="swimlane;fontStyle=1;align=center;verticalAlign=top;childLayout=stackLayout;horizontal=1;startSize=26;horizontalStack=0;resizeParent=1;resizeParentMax=0;resizeLast=0;collapsible=1;marginBottom=0;whiteSpace=wrap;html=1;" parent="WIyWlLk6GJQsqaUBKTNV-1" vertex="1">
          <mxGeometry x="650" y="380" width="110" height="34" as="geometry" />
        </mxCell>
        <mxCell id="r4E6djIWqzmuqeX_bI0s-33" value="" style="line;strokeWidth=1;fillColor=none;align=left;verticalAlign=middle;spacingTop=-1;spacingLeft=3;spacingRight=3;rotatable=0;labelPosition=right;points=[];portConstraint=eastwest;strokeColor=inherit;" parent="r4E6djIWqzmuqeX_bI0s-32" vertex="1">
          <mxGeometry y="26" width="110" height="8" as="geometry" />
        </mxCell>
        <mxCell id="r4E6djIWqzmuqeX_bI0s-34" value="Music" style="swimlane;fontStyle=1;align=center;verticalAlign=top;childLayout=stackLayout;horizontal=1;startSize=26;horizontalStack=0;resizeParent=1;resizeParentMax=0;resizeLast=0;collapsible=1;marginBottom=0;whiteSpace=wrap;html=1;" parent="WIyWlLk6GJQsqaUBKTNV-1" vertex="1">
          <mxGeometry x="650" y="440" width="110" height="34" as="geometry" />
        </mxCell>
        <mxCell id="r4E6djIWqzmuqeX_bI0s-35" value="" style="line;strokeWidth=1;fillColor=none;align=left;verticalAlign=middle;spacingTop=-1;spacingLeft=3;spacingRight=3;rotatable=0;labelPosition=right;points=[];portConstraint=eastwest;strokeColor=inherit;" parent="r4E6djIWqzmuqeX_bI0s-34" vertex="1">
          <mxGeometry y="26" width="110" height="8" as="geometry" />
        </mxCell>
        <mxCell id="r4E6djIWqzmuqeX_bI0s-36" value="Sound" style="swimlane;fontStyle=1;align=center;verticalAlign=top;childLayout=stackLayout;horizontal=1;startSize=26;horizontalStack=0;resizeParent=1;resizeParentMax=0;resizeLast=0;collapsible=1;marginBottom=0;whiteSpace=wrap;html=1;" parent="WIyWlLk6GJQsqaUBKTNV-1" vertex="1">
          <mxGeometry x="650" y="500" width="110" height="34" as="geometry" />
        </mxCell>
        <mxCell id="r4E6djIWqzmuqeX_bI0s-37" value="" style="line;strokeWidth=1;fillColor=none;align=left;verticalAlign=middle;spacingTop=-1;spacingLeft=3;spacingRight=3;rotatable=0;labelPosition=right;points=[];portConstraint=eastwest;strokeColor=inherit;" parent="r4E6djIWqzmuqeX_bI0s-36" vertex="1">
          <mxGeometry y="26" width="110" height="8" as="geometry" />
        </mxCell>
        <mxCell id="r4E6djIWqzmuqeX_bI0s-38" value="Vibration" style="swimlane;fontStyle=1;align=center;verticalAlign=top;childLayout=stackLayout;horizontal=1;startSize=26;horizontalStack=0;resizeParent=1;resizeParentMax=0;resizeLast=0;collapsible=1;marginBottom=0;whiteSpace=wrap;html=1;" parent="WIyWlLk6GJQsqaUBKTNV-1" vertex="1">
          <mxGeometry x="650" y="560" width="110" height="34" as="geometry" />
        </mxCell>
        <mxCell id="r4E6djIWqzmuqeX_bI0s-39" value="" style="line;strokeWidth=1;fillColor=none;align=left;verticalAlign=middle;spacingTop=-1;spacingLeft=3;spacingRight=3;rotatable=0;labelPosition=right;points=[];portConstraint=eastwest;strokeColor=inherit;" parent="r4E6djIWqzmuqeX_bI0s-38" vertex="1">
          <mxGeometry y="26" width="110" height="8" as="geometry" />
        </mxCell>
        <mxCell id="r4E6djIWqzmuqeX_bI0s-40" value="Game" style="swimlane;fontStyle=1;align=center;verticalAlign=top;childLayout=stackLayout;horizontal=1;startSize=26;horizontalStack=0;resizeParent=1;resizeParentMax=0;resizeLast=0;collapsible=1;marginBottom=0;whiteSpace=wrap;html=1;" parent="WIyWlLk6GJQsqaUBKTNV-1" vertex="1">
          <mxGeometry x="370" y="440" width="160" height="242" as="geometry" />
        </mxCell>
        <mxCell id="r4E6djIWqzmuqeX_bI0s-41" value="+ music: boolean" style="text;strokeColor=none;fillColor=none;align=left;verticalAlign=top;spacingLeft=4;spacingRight=4;overflow=hidden;rotatable=0;points=[[0,0.5],[1,0.5]];portConstraint=eastwest;whiteSpace=wrap;html=1;" parent="r4E6djIWqzmuqeX_bI0s-40" vertex="1">
          <mxGeometry y="26" width="160" height="26" as="geometry" />
        </mxCell>
        <mxCell id="r4E6djIWqzmuqeX_bI0s-44" value="+ sound: boolean" style="text;strokeColor=none;fillColor=none;align=left;verticalAlign=top;spacingLeft=4;spacingRight=4;overflow=hidden;rotatable=0;points=[[0,0.5],[1,0.5]];portConstraint=eastwest;whiteSpace=wrap;html=1;" parent="r4E6djIWqzmuqeX_bI0s-40" vertex="1">
          <mxGeometry y="52" width="160" height="26" as="geometry" />
        </mxCell>
        <mxCell id="r4E6djIWqzmuqeX_bI0s-45" value="+ vibration: boolean" style="text;strokeColor=none;fillColor=none;align=left;verticalAlign=top;spacingLeft=4;spacingRight=4;overflow=hidden;rotatable=0;points=[[0,0.5],[1,0.5]];portConstraint=eastwest;whiteSpace=wrap;html=1;" parent="r4E6djIWqzmuqeX_bI0s-40" vertex="1">
          <mxGeometry y="78" width="160" height="26" as="geometry" />
        </mxCell>
        <mxCell id="r4E6djIWqzmuqeX_bI0s-42" value="" style="line;strokeWidth=1;fillColor=none;align=left;verticalAlign=middle;spacingTop=-1;spacingLeft=3;spacingRight=3;rotatable=0;labelPosition=right;points=[];portConstraint=eastwest;strokeColor=inherit;" parent="r4E6djIWqzmuqeX_bI0s-40" vertex="1">
          <mxGeometry y="104" width="160" height="8" as="geometry" />
        </mxCell>
        <mxCell id="r4E6djIWqzmuqeX_bI0s-43" value="+ continue(): string" style="text;strokeColor=none;fillColor=none;align=left;verticalAlign=top;spacingLeft=4;spacingRight=4;overflow=hidden;rotatable=0;points=[[0,0.5],[1,0.5]];portConstraint=eastwest;whiteSpace=wrap;html=1;" parent="r4E6djIWqzmuqeX_bI0s-40" vertex="1">
          <mxGeometry y="112" width="160" height="26" as="geometry" />
        </mxCell>
        <mxCell id="r4E6djIWqzmuqeX_bI0s-46" value="+ newGame(): string" style="text;strokeColor=none;fillColor=none;align=left;verticalAlign=top;spacingLeft=4;spacingRight=4;overflow=hidden;rotatable=0;points=[[0,0.5],[1,0.5]];portConstraint=eastwest;whiteSpace=wrap;html=1;" parent="r4E6djIWqzmuqeX_bI0s-40" vertex="1">
          <mxGeometry y="138" width="160" height="26" as="geometry" />
        </mxCell>
        <mxCell id="r4E6djIWqzmuqeX_bI0s-47" value="+ save(string): string" style="text;strokeColor=none;fillColor=none;align=left;verticalAlign=top;spacingLeft=4;spacingRight=4;overflow=hidden;rotatable=0;points=[[0,0.5],[1,0.5]];portConstraint=eastwest;whiteSpace=wrap;html=1;" parent="r4E6djIWqzmuqeX_bI0s-40" vertex="1">
          <mxGeometry y="164" width="160" height="26" as="geometry" />
        </mxCell>
        <mxCell id="r4E6djIWqzmuqeX_bI0s-48" value="+ load(string): string" style="text;strokeColor=none;fillColor=none;align=left;verticalAlign=top;spacingLeft=4;spacingRight=4;overflow=hidden;rotatable=0;points=[[0,0.5],[1,0.5]];portConstraint=eastwest;whiteSpace=wrap;html=1;" parent="r4E6djIWqzmuqeX_bI0s-40" vertex="1">
          <mxGeometry y="190" width="160" height="26" as="geometry" />
        </mxCell>
        <mxCell id="r4E6djIWqzmuqeX_bI0s-49" value="+ exit(): string" style="text;strokeColor=none;fillColor=none;align=left;verticalAlign=top;spacingLeft=4;spacingRight=4;overflow=hidden;rotatable=0;points=[[0,0.5],[1,0.5]];portConstraint=eastwest;whiteSpace=wrap;html=1;" parent="r4E6djIWqzmuqeX_bI0s-40" vertex="1">
          <mxGeometry y="216" width="160" height="26" as="geometry" />
        </mxCell>
        <mxCell id="r4E6djIWqzmuqeX_bI0s-51" value="" style="endArrow=none;html=1;rounded=0;" parent="WIyWlLk6GJQsqaUBKTNV-1" edge="1">
          <mxGeometry width="50" height="50" relative="1" as="geometry">
            <mxPoint x="610" y="516.71" as="sourcePoint" />
            <mxPoint x="650" y="516.71" as="targetPoint" />
          </mxGeometry>
        </mxCell>
        <mxCell id="r4E6djIWqzmuqeX_bI0s-52" value="" style="endArrow=none;html=1;rounded=0;" parent="WIyWlLk6GJQsqaUBKTNV-1" edge="1">
          <mxGeometry width="50" height="50" relative="1" as="geometry">
            <mxPoint x="610" y="456.71000000000004" as="sourcePoint" />
            <mxPoint x="650" y="456.71000000000004" as="targetPoint" />
          </mxGeometry>
        </mxCell>
        <mxCell id="r4E6djIWqzmuqeX_bI0s-53" value="" style="endArrow=none;html=1;rounded=0;" parent="WIyWlLk6GJQsqaUBKTNV-1" edge="1">
          <mxGeometry width="50" height="50" relative="1" as="geometry">
            <mxPoint x="610" y="396.71000000000004" as="sourcePoint" />
            <mxPoint x="650" y="396.71000000000004" as="targetPoint" />
          </mxGeometry>
        </mxCell>
        <mxCell id="r4E6djIWqzmuqeX_bI0s-54" value="" style="endArrow=none;html=1;rounded=0;" parent="WIyWlLk6GJQsqaUBKTNV-1" edge="1">
          <mxGeometry width="50" height="50" relative="1" as="geometry">
            <mxPoint x="610" y="250.00000000000003" as="sourcePoint" />
            <mxPoint x="650" y="250.00000000000003" as="targetPoint" />
          </mxGeometry>
        </mxCell>
        <mxCell id="r4E6djIWqzmuqeX_bI0s-56" value="" style="endArrow=none;html=1;rounded=0;" parent="WIyWlLk6GJQsqaUBKTNV-1" edge="1">
          <mxGeometry width="50" height="50" relative="1" as="geometry">
            <mxPoint x="610" y="176.71000000000004" as="sourcePoint" />
            <mxPoint x="650" y="176.71000000000004" as="targetPoint" />
          </mxGeometry>
        </mxCell>
        <mxCell id="r4E6djIWqzmuqeX_bI0s-57" value="Extends" style="endArrow=block;endSize=16;endFill=0;html=1;rounded=0;" parent="WIyWlLk6GJQsqaUBKTNV-1" source="r4E6djIWqzmuqeX_bI0s-29" target="r4E6djIWqzmuqeX_bI0s-16" edge="1">
          <mxGeometry x="0.1667" y="-10" width="160" relative="1" as="geometry">
            <mxPoint x="400" y="410" as="sourcePoint" />
            <mxPoint x="560" y="410" as="targetPoint" />
            <mxPoint as="offset" />
          </mxGeometry>
        </mxCell>
        <mxCell id="r4E6djIWqzmuqeX_bI0s-58" value="" style="endArrow=none;html=1;rounded=0;" parent="WIyWlLk6GJQsqaUBKTNV-1" source="r4E6djIWqzmuqeX_bI0s-38" target="r4E6djIWqzmuqeX_bI0s-20" edge="1">
          <mxGeometry width="50" height="50" relative="1" as="geometry">
            <mxPoint x="610" y="570" as="sourcePoint" />
            <mxPoint x="610" y="110" as="targetPoint" />
            <Array as="points">
              <mxPoint x="610" y="577" />
              <mxPoint x="610" y="117" />
            </Array>
          </mxGeometry>
        </mxCell>
        <mxCell id="r4E6djIWqzmuqeX_bI0s-62" value="" style="endArrow=diamondThin;endFill=0;endSize=24;html=1;rounded=0;" parent="WIyWlLk6GJQsqaUBKTNV-1" source="r4E6djIWqzmuqeX_bI0s-16" target="r4E6djIWqzmuqeX_bI0s-0" edge="1">
          <mxGeometry width="160" relative="1" as="geometry">
            <mxPoint x="140" y="220" as="sourcePoint" />
            <mxPoint x="300" y="220" as="targetPoint" />
          </mxGeometry>
        </mxCell>
        <mxCell id="r4E6djIWqzmuqeX_bI0s-66" value="" style="endArrow=open;endFill=1;endSize=12;html=1;rounded=0;" parent="WIyWlLk6GJQsqaUBKTNV-1" source="GQACmn0jV0vaVqxmoJ_N-4" target="r4E6djIWqzmuqeX_bI0s-16" edge="1">
          <mxGeometry width="160" relative="1" as="geometry">
            <mxPoint x="320" y="230" as="sourcePoint" />
            <mxPoint x="480" y="230" as="targetPoint" />
            <Array as="points">
              <mxPoint x="325" y="240" />
              <mxPoint x="450" y="240" />
            </Array>
          </mxGeometry>
        </mxCell>
        <mxCell id="r4E6djIWqzmuqeX_bI0s-67" value="" style="endArrow=diamondThin;endFill=0;endSize=24;html=1;rounded=0;" parent="WIyWlLk6GJQsqaUBKTNV-1" source="r4E6djIWqzmuqeX_bI0s-40" target="r4E6djIWqzmuqeX_bI0s-16" edge="1">
          <mxGeometry width="160" relative="1" as="geometry">
            <mxPoint x="100" y="500" as="sourcePoint" />
            <mxPoint x="260" y="500" as="targetPoint" />
          </mxGeometry>
        </mxCell>
      </root>
    </mxGraphModel>
  </diagram>
</mxfile>
